<svg width="144" height="62" viewBox="0 0 144 62" fill="none" xmlns="http://www.w3.org/2000/svg">
<path d="M34.0583 32.1413C39.4551 32.1413 44.2746 29.7066 47.4835 25.885C45.4536 18.4962 38.6651 13.0637 30.6063 13.0637C25.2095 13.0637 20.3901 15.4983 17.1812 19.3199C19.211 26.7087 25.9996 32.1413 34.0583 32.1413Z" fill="#3EE5BD"/>
<path d="M25.9326 39.7481C25.9326 32.2806 21.2226 25.9153 14.6103 23.4261C13.644 25.5883 13.1091 27.9806 13.1091 30.5C13.1091 37.9675 17.8192 44.3328 24.4315 46.822C25.3917 44.6599 25.9326 42.2676 25.9326 39.7481Z" fill="#27D4DA"/>
<path d="M25.4343 47.1672C27.0692 47.6699 28.8073 47.9424 30.6063 47.9424C38.7805 47.9424 45.6481 42.3524 47.5746 34.8001C45.9398 34.2974 44.2016 34.0248 42.4027 34.0248C34.2284 34.0309 27.3609 39.6149 25.4343 47.1672Z" fill="#0FC3FF"/>
<path d="M64.5794 37.4406C63.4065 37.4406 62.3855 37.1499 61.5225 36.5624C60.6534 35.981 59.9849 35.1816 59.5047 34.1641C59.0246 33.1527 58.7876 31.9959 58.7876 30.6938C58.7876 29.3856 59.0307 28.2228 59.5169 27.1992C60.0031 26.1818 60.6777 25.3763 61.5407 24.7948C62.4037 24.2134 63.4065 23.9227 64.5551 23.9227C65.4303 23.9227 66.2264 24.0923 66.9375 24.4315C67.6486 24.7706 68.2381 25.243 68.7 25.8487C69.1619 26.4604 69.4536 27.169 69.5751 27.9805H68.0375C67.8795 27.2416 67.4966 26.6118 66.8889 26.0909C66.2811 25.564 65.5154 25.3036 64.5794 25.3036C63.7468 25.3036 63.0054 25.5277 62.3612 25.9819C61.7169 26.4301 61.2186 27.0599 60.8539 27.8594C60.4954 28.6588 60.313 29.5915 60.313 30.6453C60.313 31.7052 60.4893 32.6439 60.8418 33.4555C61.1943 34.2671 61.6926 34.903 62.3308 35.3633C62.9689 35.8235 63.7225 36.0537 64.5794 36.0537C65.1629 36.0537 65.6916 35.9447 66.1717 35.7266C66.6519 35.5086 67.0591 35.1997 67.3812 34.794C67.7094 34.3942 67.9281 33.9097 68.0436 33.3586H69.5812C69.4657 34.1459 69.1862 34.8485 68.7425 35.4602C68.2989 36.0779 67.7215 36.5564 67.0104 36.9076C66.2994 37.265 65.4911 37.4406 64.5794 37.4406Z" fill="#2C2F54"/>
<path d="M80.3567 32.1776V24.1105H81.8761V37.1681H80.3567V34.9999H80.2352C79.9252 35.6661 79.439 36.2233 78.7766 36.6714C78.1141 37.1196 77.2997 37.3376 76.3395 37.3376C75.5008 37.3376 74.7593 37.1559 74.1151 36.7865C73.4648 36.4231 72.9604 35.8841 72.5897 35.1755C72.2189 34.4669 72.0366 33.5948 72.0366 32.5652V24.1105H73.556V32.4744C73.556 33.4918 73.8599 34.3155 74.4615 34.9333C75.0632 35.551 75.835 35.8659 76.7831 35.8659C77.3727 35.8659 77.9439 35.7266 78.4909 35.442C79.0379 35.1573 79.4876 34.7455 79.8401 34.1944C80.1805 33.6493 80.3567 32.977 80.3567 32.1776Z" fill="#2C2F54"/>
<path d="M85.2429 37.1681V24.1105H86.7198V26.1152H86.8291C87.0905 25.455 87.5463 24.9281 88.1966 24.5223C88.8469 24.1165 89.5883 23.9167 90.4088 23.9167C90.5364 23.9167 90.6762 23.9167 90.8281 23.9227C90.9801 23.9288 91.1077 23.9349 91.211 23.9409V25.4792C91.1442 25.4671 91.0226 25.449 90.8524 25.4308C90.6823 25.4066 90.4939 25.3944 90.2994 25.3944C89.6187 25.3944 89.011 25.5398 88.4761 25.8244C87.9413 26.1091 87.522 26.5088 87.2181 27.0115C86.9082 27.5142 86.7562 28.0895 86.7562 28.7376V37.1681H85.2429Z" fill="#2C2F54"/>
<path d="M93.7332 37.1681V28.0229V24.1105H95.2586V37.1681H93.7332Z" fill="#2C2F54"/>
<path d="M109.492 30.3425C109.492 29.2463 109.34 28.3015 109.03 27.496C108.72 26.6965 108.307 26.0303 107.778 25.4974C107.25 24.9644 106.66 24.5768 105.998 24.3164C105.335 24.056 104.654 23.9288 103.943 23.9288C102.813 23.9288 101.816 24.2195 100.953 24.8009C100.09 25.3823 99.4157 26.1818 98.9295 27.2053C98.4433 28.2288 98.2002 29.3977 98.2002 30.7119C98.2002 32.0322 98.4433 33.2011 98.9295 34.2125C99.4157 35.2239 100.109 36.0173 100.996 36.5866C101.883 37.1559 102.947 37.4406 104.168 37.4406C105.043 37.4406 105.821 37.3013 106.49 37.0227C107.164 36.7441 107.73 36.3686 108.179 35.9023C108.629 35.4359 108.957 34.9332 109.158 34.3821L107.718 33.9158C107.553 34.3094 107.31 34.6668 106.988 34.9938C106.666 35.3208 106.271 35.5813 105.803 35.769C105.335 35.9628 104.788 36.0597 104.168 36.0597C103.257 36.0597 102.473 35.8478 101.804 35.4238C101.142 34.9999 100.625 34.4003 100.267 33.6251C99.9262 32.8983 99.756 32.0504 99.7317 31.0935H109.48V30.3425H109.492ZM99.756 29.755C99.8047 29.0283 99.9687 28.3499 100.279 27.7201C100.637 26.9933 101.13 26.4119 101.762 25.9698C102.394 25.5277 103.123 25.3096 103.956 25.3096C104.74 25.3096 105.432 25.5034 106.034 25.8971C106.636 26.2908 107.104 26.8177 107.444 27.4899C107.784 28.1622 107.955 28.9192 107.955 29.755H99.756Z" fill="#2C2F54"/>
<path d="M120.249 37.4648C119.459 37.4648 118.736 37.3134 118.079 36.9985C117.423 36.6896 116.907 36.2414 116.518 35.654C116.129 35.0665 115.94 34.3518 115.94 33.5161C115.94 32.868 116.062 32.3229 116.305 31.8808C116.548 31.4387 116.894 31.0753 117.344 30.7907C117.794 30.506 118.323 30.2819 118.942 30.1184C119.556 29.9549 120.231 29.8277 120.972 29.7369C121.708 29.646 122.328 29.5673 122.838 29.5007C123.349 29.434 123.738 29.325 124.005 29.1797C124.272 29.0343 124.406 28.7921 124.406 28.465V28.1622C124.406 27.2719 124.139 26.5694 123.61 26.0606C123.075 25.5458 122.315 25.2915 121.319 25.2915C120.377 25.2915 119.605 25.4974 119.009 25.9092C118.414 26.3211 118 26.8116 117.757 27.3688L116.317 26.848C116.615 26.1333 117.022 25.564 117.545 25.134C118.067 24.704 118.657 24.3951 119.301 24.2074C119.945 24.0196 120.608 23.9227 121.27 23.9227C121.768 23.9227 122.291 23.9893 122.838 24.1165C123.379 24.2498 123.883 24.4739 124.351 24.7948C124.819 25.1158 125.196 25.558 125.488 26.1273C125.78 26.6966 125.925 27.4173 125.925 28.2894V37.1559H124.406V35.0907H124.315C124.133 35.4783 123.865 35.8478 123.507 36.2112C123.148 36.5745 122.698 36.8713 122.157 37.1014C121.61 37.3498 120.972 37.4648 120.249 37.4648ZM120.45 36.0779C121.258 36.0779 121.957 35.9023 122.546 35.5449C123.136 35.1876 123.592 34.7152 123.914 34.1217C124.236 33.5282 124.394 32.8741 124.394 32.1594V30.2698C124.278 30.3788 124.09 30.4757 123.829 30.5605C123.567 30.6453 123.257 30.718 122.917 30.7846C122.571 30.8512 122.23 30.9057 121.89 30.9481C121.55 30.9966 121.24 31.0329 120.966 31.0693C120.225 31.1601 119.593 31.2994 119.07 31.4932C118.547 31.687 118.146 31.9535 117.867 32.2866C117.587 32.6258 117.447 33.0558 117.447 33.5827C117.447 34.3761 117.733 34.9878 118.298 35.4238C118.876 35.8599 119.593 36.0779 120.45 36.0779Z" fill="#2C2F54"/>
<path d="M95.599 20.8643C95.599 21.1671 95.4775 21.4396 95.2769 21.6334C95.0764 21.8333 94.809 21.9544 94.5051 21.9544C94.2012 21.9544 93.9277 21.8333 93.7332 21.6334C93.5327 21.4336 93.4111 21.1671 93.4111 20.8643C93.4111 20.5614 93.5327 20.2889 93.7332 20.0951C93.9338 19.9013 94.2012 19.7741 94.5051 19.7741C94.809 19.7741 95.0824 19.8952 95.2769 20.0951C95.4714 20.295 95.599 20.5614 95.599 20.8643Z" fill="#2C2F54"/>
<path d="M129.372 37.1681V28.0229V24.1105H130.897V37.1681H129.372Z" fill="#2C2F54"/>
<path d="M131.237 20.8643C131.237 21.1671 131.116 21.4396 130.915 21.6334C130.715 21.8333 130.447 21.9544 130.143 21.9544C129.839 21.9544 129.566 21.8333 129.371 21.6334C129.171 21.4336 129.049 21.1671 129.049 20.8643C129.049 20.5614 129.171 20.2889 129.371 20.0951C129.572 19.9013 129.839 19.7741 130.143 19.7741C130.447 19.7741 130.721 19.8952 130.915 20.0951C131.11 20.295 131.237 20.5614 131.237 20.8643Z" fill="#2C2F54"/>
</svg>
