<svg width="145" height="145" viewBox="0 0 145 145" fill="none" xmlns="http://www.w3.org/2000/svg">
<path d="M72.8796 144.5C72.8796 144.5 72.8796 91.0309 72.8796 55C72.8796 21 64.4822 5.63721e-06 99.554 8.70329e-06C119.313 1.04307e-05 144.999 18 144.999 49C144.999 91 72.8796 144.5 72.8796 144.5Z" fill="#FF696D"/>
<path d="M73.1182 145C73.1182 145 73.1183 91.3461 73.1183 55.1905C73.1183 21.0728 81.5157 0.000164083 46.4439 0.000142692C26.6851 0.000139238 0.998758 18.0624 0.99875 49.1697C0.998739 91.315 73.1182 145 73.1182 145Z" fill="#FF696D"/>
<circle cx="71.4988" cy="69.5001" r="34.5" fill="url(#paint0_radial_27_279)"/>
<path fill-rule="evenodd" clip-rule="evenodd" d="M62.6227 63.4735L53.2994 93.99L51.9952 98.2621C50.913 101.808 47.1949 103.79 43.6709 102.702C41.4787 102.031 39.8694 100.272 39.2034 98.0946L33.737 80.1705C32.5716 81.1199 31.0732 81.6783 29.4915 81.6783H8.00002C4.33728 81.6783 1.52588e-05 78.2737 1.52588e-05 74.5879C1.52588e-05 70.9022 4.33708 68.2757 8.00002 68.2757H24.6069L27.8812 57.5261C28.5472 55.3482 30.1566 53.5893 32.3487 52.9191C35.8727 51.8302 39.5909 53.8126 40.673 57.3586L41.9772 61.6306L45.6122 73.525L56.1844 38.9056C56.8503 36.7277 58.4597 34.9688 60.6518 34.2986C64.1759 33.2097 67.8941 35.1921 68.9762 38.7381L70.2804 43.0101L77.8835 67.8867H92.5C96.1628 67.8867 99.5 70.9022 99.5 74.5879C99.5 78.2737 97.1629 81.2892 93.5 81.2892H72.9719C69.9474 81.2892 67.4224 79.251 66.5622 76.3749L62.6221 63.4754L62.6227 63.4735Z" fill="#FFCFD1"/>
<defs>
<radialGradient id="paint0_radial_27_279" cx="0" cy="0" r="1" gradientUnits="userSpaceOnUse" gradientTransform="translate(71.4988 69.5001) rotate(90) scale(34.5)">
<stop stop-color="#F7E39E" stop-opacity="0.8"/>
<stop offset="1" stop-color="#FF696D"/>
</radialGradient>
</defs>
</svg>
