<svg width="207" height="40" viewBox="0 0 207 40" fill="none" xmlns="http://www.w3.org/2000/svg">
<g clip-path="url(#clip0_710_345)">
<path d="M37.2139 38.5901C37.1882 37.6783 36.8481 16.2846 36.8481 16.2846C36.8481 6.23444 28.671 0 18.607 0C8.5429 0 0.385104 6.07276 0.385104 16.1035C0.385104 16.1035 0.032092 37.6783 0 38.5772V40.0065L1.28368 39.9935C1.59818 39.9935 8.99219 39.8642 12.7726 37.4648C16.752 34.9297 16.9638 32.9378 17.0665 28.6758C17.1821 23.5861 17.0216 15.1657 17.0152 14.9846C17.0152 14.9782 16.951 13.9499 17.4452 13.4002C17.5351 13.3032 17.8047 12.9992 18.6134 12.9992C19.4221 12.9992 19.6852 13.2967 19.7751 13.3937C20.1987 13.8593 20.2372 14.7065 20.2051 15.0817C20.2051 15.1657 20.0383 23.5926 20.1602 28.6758C20.2565 32.9378 20.4683 34.9297 24.4541 37.4648C28.2281 39.8642 35.6286 39.9871 35.9431 39.9935L37.2653 39.9289L37.2268 38.5966L37.2139 38.5901ZM15.5646 11.6734C14.3195 13.0574 14.4671 15.004 14.4799 15.1269C14.4799 15.211 14.6468 23.5796 14.5313 28.6112C14.4414 32.3751 14.4222 33.3905 11.4183 35.2983C9.09488 36.7793 4.75604 37.232 2.57378 37.3743C2.64438 34.7615 2.77917 28.6112 2.80484 20.5465L2.81768 20.5594V17.0218C2.81768 10.1083 7.31698 3.13662 17.3361 2.59337V10.6063C16.4825 10.8391 15.9176 11.2854 15.5582 11.6799M25.7956 35.3048C22.7982 33.3969 22.7725 32.3816 22.6826 28.6176C22.5671 23.5861 22.7276 15.2304 22.7276 15.2304C22.7468 15.0105 22.8945 13.0639 21.6493 11.6863C21.2898 11.2918 20.725 10.8456 19.8714 10.6128V2.5869C29.8905 3.13015 34.3898 10.1019 34.3898 17.0154V20.346H34.4027C34.4283 28.4689 34.5695 34.6774 34.6401 37.3743C32.4579 37.2385 28.119 36.7793 25.7956 35.2983" fill="#DE854D"/>
<path d="M85.6087 36.7859H81.9117V19.0979C81.9117 11.0074 76.2571 8.12944 70.9619 8.12944C65.6667 8.12944 60.0121 11.0138 60.0121 19.0979V36.7859H56.3151V19.0979C56.3151 8.95078 63.6706 4.4043 70.9619 4.4043C78.2532 4.4043 85.6087 8.95078 85.6087 19.0979V36.7859Z" fill="#41695C"/>
<path d="M192.353 39.1011C185.062 39.1011 177.706 34.5547 177.706 24.4075V19.0979C177.706 8.95078 185.062 4.4043 192.353 4.4043C199.645 4.4043 207 8.95078 207 19.0979V24.4075C207 34.5547 199.645 39.1011 192.353 39.1011ZM192.353 8.12297C187.058 8.12297 181.403 11.0074 181.403 19.0914V24.4011C181.403 32.4916 187.058 35.3695 192.353 35.3695C197.648 35.3695 203.303 32.4851 203.303 24.4011V19.0914C203.303 11.0009 197.648 8.12297 192.353 8.12297Z" fill="#41695C"/>
<path d="M106.359 39.1011C99.0681 39.1011 91.7126 34.5546 91.7126 24.4074V6.71948H95.4096V24.4074C95.4096 32.498 101.064 35.3759 106.359 35.3759C111.655 35.3759 117.309 32.4915 117.309 24.4074V6.71948H121.006V24.4074C121.006 34.5546 113.651 39.1011 106.359 39.1011Z" fill="#41695C"/>
<path d="M130.525 36.7859H126.828V19.0979C126.828 9.04779 133.131 4.4431 139.016 4.4043C139.042 4.4043 139.068 4.4043 139.093 4.4043C144.979 4.4431 151.282 9.04779 151.282 19.0979V31.528H147.585V19.0979C147.585 11.5442 143.304 8.14884 139.048 8.12944C134.793 8.14884 130.518 11.5442 130.518 19.0979V36.7859H130.525Z" fill="#41695C"/>
<path d="M130.525 36.7859H126.828V19.0979C126.828 9.04779 133.131 4.4431 139.016 4.4043C139.042 4.4043 139.068 4.4043 139.093 4.4043C144.979 4.4431 151.282 9.04779 151.282 19.0979V31.528H147.585V19.0979C147.585 11.5442 143.304 8.14884 139.048 8.12944C134.793 8.14884 130.518 11.5442 130.518 19.0979V36.7859H130.525Z" fill="#41695C"/>
<path d="M172.154 36.7859H168.457V19.0979C168.457 11.5442 164.176 8.14884 159.921 8.12944C155.666 8.14884 151.385 11.5442 151.385 19.0979V31.528H147.688V19.0979C147.688 9.04779 153.99 4.4431 159.876 4.4043H159.953C165.839 4.4431 172.142 9.04779 172.142 19.0979V36.7859H172.154Z" fill="#41695C"/>
<path d="M204.118 4.7987V6.52546H203.656V4.7987H203.155V4.4624H204.612V4.7987H204.112H204.118ZM205.28 5.12853H205.261L205.28 5.44543V6.52546H204.876V4.4624H205.466L205.806 5.4907L205.877 5.74292H205.896L205.96 5.4907L206.3 4.4624H206.891V6.52546H206.474V5.44543L206.487 5.12853H206.467L206.024 6.52546H205.71L205.273 5.12853H205.28Z" fill="#41695C"/>
</g>
<defs>
<clipPath id="clip0_710_345">
<rect width="207" height="40" fill="white"/>
</clipPath>
</defs>
</svg>
