<svg width="196" height="38" viewBox="0 0 196 38" fill="none" xmlns="http://www.w3.org/2000/svg">
<g clip-path="url(#clip0_1782_580)">
<path d="M35.1483 36.1728C35.124 35.318 34.8027 15.2645 34.8027 15.2645C34.8027 5.8439 27.0796 0 17.5741 0C8.0687 0 0.363728 5.69235 0.363728 15.0947C0.363728 15.0947 0.0303107 35.318 0 36.1607V37.5004L1.21243 37.4883C1.50947 37.4883 8.49305 37.367 12.0637 35.118C15.8222 32.7416 16.0222 30.8745 16.1192 26.8795C16.2283 22.1086 16.0768 14.2157 16.0707 14.046C16.0707 14.0399 16.0101 13.076 16.4769 12.5608C16.5618 12.4698 16.8164 12.1849 17.5802 12.1849C18.344 12.1849 18.5926 12.4638 18.6774 12.5547C19.0775 12.9912 19.1139 13.7853 19.0836 14.1369C19.0836 14.2157 18.926 22.1147 19.0412 26.8795C19.1321 30.8745 19.3322 32.7416 23.0967 35.118C26.6613 37.367 33.6509 37.4822 33.948 37.4883L35.1968 37.4276L35.1604 36.1788L35.1483 36.1728ZM14.7007 10.9422C13.5246 12.2395 13.6641 14.0642 13.6762 14.1793C13.6762 14.2582 13.8338 22.1026 13.7247 26.8189C13.6398 30.3471 13.6216 31.2988 10.7845 33.0872C8.59005 34.4754 4.49204 34.8997 2.43092 35.0331C2.4976 32.584 2.62491 26.8189 2.64915 19.2594L2.66128 19.2715V15.9555C2.66128 9.47512 6.91084 2.94014 16.3738 2.43092V9.94191C15.5676 10.1601 15.0341 10.5784 14.6946 10.9482M24.3637 33.0932C21.5327 31.3049 21.5085 30.3531 21.4236 26.825C21.3145 22.1086 21.466 14.2763 21.466 14.2763C21.4842 14.0702 21.6236 12.2455 20.4476 10.9543C20.1081 10.5845 19.5746 10.1662 18.7684 9.94797V2.42486C28.2314 2.93408 32.4809 9.46906 32.4809 15.9495V19.0715H32.4931C32.5173 26.6855 32.6507 32.5052 32.7174 35.0331C30.6562 34.9058 26.5582 34.4754 24.3637 33.0872" fill="#DE854D"/>
<path d="M80.8566 34.4814H77.3648V17.9015C77.3648 10.3177 72.024 7.62009 67.0228 7.62009C62.0215 7.62009 56.6808 10.3238 56.6808 17.9015V34.4814H53.189V17.9015C53.189 8.38998 60.1362 4.1283 67.0228 4.1283C73.9094 4.1283 80.8566 8.38998 80.8566 17.9015V34.4814Z" fill="white"/>
<path d="M181.676 36.6517C174.79 36.6517 167.842 32.39 167.842 22.8785V17.9015C167.842 8.38998 174.79 4.1283 181.676 4.1283C188.563 4.1283 195.51 8.38998 195.51 17.9015V22.8785C195.51 32.39 188.563 36.6517 181.676 36.6517ZM181.676 7.61403C176.675 7.61403 171.334 10.3177 171.334 17.8954V22.8724C171.334 30.4562 176.675 33.1538 181.676 33.1538C186.677 33.1538 192.018 30.4501 192.018 22.8724V17.8954C192.018 10.3117 186.677 7.61403 181.676 7.61403Z" fill="white"/>
<path d="M100.455 36.6516C93.5688 36.6516 86.6216 32.39 86.6216 22.8785V6.29852H90.1134V22.8785C90.1134 30.4622 95.4541 33.1599 100.455 33.1599C105.457 33.1599 110.797 30.4561 110.797 22.8785V6.29852H114.289V22.8785C114.289 32.39 107.342 36.6516 100.455 36.6516Z" fill="white"/>
<path d="M123.279 34.4814H119.788V17.9015C119.788 8.48091 125.741 4.16467 131.3 4.1283C131.324 4.1283 131.348 4.1283 131.372 4.1283C136.931 4.16467 142.884 8.48091 142.884 17.9015V29.5529H139.393V17.9015C139.393 10.8209 135.349 7.63827 131.33 7.62009C127.311 7.63827 123.273 10.8209 123.273 17.9015V34.4814H123.279Z" fill="white"/>
<path d="M123.279 34.4814H119.788V17.9015C119.788 8.48091 125.741 4.16467 131.3 4.1283C131.324 4.1283 131.348 4.1283 131.372 4.1283C136.931 4.16467 142.884 8.48091 142.884 17.9015V29.5529H139.393V17.9015C139.393 10.8209 135.349 7.63827 131.33 7.62009C127.311 7.63827 123.273 10.8209 123.273 17.9015V34.4814H123.279Z" fill="white"/>
<path d="M162.599 34.4814H159.107V17.9015C159.107 10.8209 155.063 7.63827 151.044 7.62009C147.025 7.63827 142.982 10.8209 142.982 17.9015V29.5529H139.49V17.9015C139.49 8.48091 145.443 4.16467 151.002 4.1283H151.074C156.633 4.16467 162.586 8.48091 162.586 17.9015V34.4814H162.599Z" fill="white"/>
<path d="M192.788 4.49809V6.11668H192.352V4.49809H191.879V4.18286H193.255V4.49809H192.782H192.788ZM193.885 4.80726H193.867L193.885 5.10431V6.11668H193.504V4.18286H194.061L194.383 5.14674L194.449 5.38316H194.467L194.528 5.14674L194.849 4.18286H195.407V6.11668H195.013V5.10431L195.025 4.80726H195.007L194.589 6.11668H194.292L193.879 4.80726H193.885Z" fill="white"/>
</g>
<defs>
<clipPath id="clip0_1782_580">
<rect width="195.51" height="37.4943" fill="white"/>
</clipPath>
</defs>
</svg>
