<svg width="34" height="36" viewBox="0 0 34 36" fill="none" xmlns="http://www.w3.org/2000/svg">
<path d="M33.7792 34.7727C33.7792 33.9545 33.4286 14.6688 33.4286 14.6688C33.4286 5.61039 26.0065 0 16.8896 0C7.77273 0 0.350649 5.49351 0.350649 14.4935C0.350649 14.4935 0.0584416 33.8961 0 34.7143V36H1.16883C1.46104 36 8.18182 35.8831 11.5714 33.7208C15.1948 31.4416 15.3701 29.6299 15.487 25.8312C15.6039 21.2727 15.4286 13.6753 15.4286 13.5C15.4286 13.5 15.3701 12.5649 15.8377 12.0974C15.8961 11.9805 16.1883 11.7468 16.8896 11.7468C17.5909 11.7468 17.8831 12.039 17.9416 12.0974C18.3507 12.5065 18.3507 13.2662 18.3507 13.6169C18.3507 13.6753 18.1753 21.2727 18.2922 25.8312C18.4091 29.6883 18.5844 31.4416 22.2078 33.7208C25.6558 35.8831 32.3182 36 32.6104 36L33.8377 35.9416L33.7792 34.7727ZM14.1429 10.5195C13.0325 11.7468 13.1494 13.5 13.1494 13.6169C13.1494 13.6753 13.3247 21.2143 13.2078 25.7727C13.1494 29.1623 13.0909 30.0974 10.4026 31.7922C8.2987 33.1364 4.38312 33.5455 2.3961 33.6623C2.45455 31.3247 2.57143 25.7727 2.62987 18.526V15.3117C2.62987 9.05844 6.72078 2.80519 15.7792 2.33766V9.52597C14.961 9.75974 14.4351 10.1688 14.1429 10.5195ZM23.3766 31.7922C20.6299 30.0974 20.6299 29.1623 20.5714 25.7727C20.4545 21.2727 20.6299 13.7338 20.6299 13.7338C20.6299 13.5584 20.8052 11.8052 19.6364 10.5195C19.2857 10.1688 18.8182 9.75974 18 9.52597V2.33766C27.1169 2.80519 31.1494 9.11688 31.1494 15.3117V18.2922C31.1494 25.5974 31.3247 31.2078 31.3831 33.6039C29.4545 33.5455 25.539 33.1364 23.3766 31.7922Z" fill="#DE854D"/>
<path d="M30.2725 1.40249V2.92197H29.8634V1.34405H29.3959V1.05184H30.74V1.34405H30.2725V1.40249ZM31.3244 1.69469V1.9869V2.92197H30.9738V1.05184H31.4998L31.792 1.9869L31.8504 2.22067L31.9089 1.9869L32.2595 1.05184H32.7855V2.92197H32.3764V1.92846V1.63625L31.9673 2.92197H31.6751L31.3244 1.69469Z" fill="#DE854D"/>
</svg>
