<svg width="36" height="36" viewBox="0 0 36 36" fill="none" xmlns="http://www.w3.org/2000/svg">
<path d="M18.0942 35.8758C18.0942 35.8758 18.0942 22.6008 18.0942 13.6552C18.0942 5.21379 16.0094 -2.41511e-06 24.7168 -1.65388e-06C29.6225 -1.22502e-06 35.9998 4.46896 35.9998 12.1655C35.9998 22.5931 18.0942 35.8758 18.0942 35.8758Z" fill="#FF696D"/>
<path d="M18.1534 36C18.1534 36 18.1534 22.679 18.1534 13.7025C18.1534 5.23187 20.2383 4.09747e-05 11.5308 3.94522e-05C6.62521 3.85945e-05 0.247923 4.48446 0.247921 12.2076C0.247919 22.6713 18.1534 36 18.1534 36Z" fill="#FF696D"/>
<circle cx="17.7514" cy="17.2551" r="8.56551" fill="url(#paint0_radial_1_3974)"/>
<path fill-rule="evenodd" clip-rule="evenodd" d="M15.5478 15.7589L13.2331 23.3355L12.9093 24.3961C12.6406 25.2765 11.7175 25.7686 10.8425 25.4983C10.2983 25.3319 9.89872 24.8952 9.73336 24.3545L8.37619 19.9044C8.08685 20.1401 7.71483 20.2787 7.32212 20.2787H1.98632C1.07695 20.2787 0.000114441 19.4335 0.000114441 18.5184C0.000114441 17.6033 1.0769 16.9512 1.98632 16.9512H6.10941L6.92234 14.2823C7.08769 13.7416 7.48726 13.3049 8.03151 13.1385C8.90644 12.8682 9.82958 13.3604 10.0982 14.2408L10.422 15.3014L11.3245 18.2545L13.9493 9.65933C14.1147 9.11862 14.5142 8.68193 15.0585 8.51553C15.9334 8.24518 16.8566 8.73736 17.1252 9.61775L17.449 10.6784L19.3367 16.8546H22.9656C23.875 16.8546 24.7035 17.6033 24.7035 18.5184C24.7035 19.4335 24.1233 20.1822 23.2139 20.1822H18.1173C17.3663 20.1822 16.7394 19.6761 16.5259 18.962L15.5476 15.7594L15.5478 15.7589Z" fill="#FFF0F0"/>
<defs>
<radialGradient id="paint0_radial_1_3974" cx="0" cy="0" r="1" gradientUnits="userSpaceOnUse" gradientTransform="translate(17.7514 17.2551) rotate(90) scale(8.56551)">
<stop stop-color="#F7E39E" stop-opacity="0.8"/>
<stop offset="1" stop-color="#FF696D"/>
</radialGradient>
</defs>
</svg>
