<svg width="36" height="36" viewBox="0 0 36 36" fill="none" xmlns="http://www.w3.org/2000/svg">
<g clip-path="url(#clip0_6_8576)">
<path fill-rule="evenodd" clip-rule="evenodd" d="M16.3907 3.45302C16.6799 2.58529 17.4919 2 18.4066 2H19.5934C20.5081 2 21.3201 2.58529 21.6093 3.45302L22.726 6.80305C23.5156 7.04396 24.2726 7.35943 24.989 7.74126L28.1483 6.16159C28.9664 5.75254 29.9545 5.91288 30.6012 6.55965L31.4404 7.39882C32.0872 8.04559 32.2475 9.03365 31.8385 9.85175L30.2588 13.0111C30.6406 13.7274 30.9561 14.4844 31.1969 15.274L34.547 16.3907C35.4147 16.6799 36 17.4919 36 18.4066V19.5934C36 20.5081 35.4147 21.3201 34.547 21.6093L31.1969 22.726C30.9561 23.5156 30.6406 24.2726 30.2588 24.9889L31.8385 28.1482C32.2475 28.9663 32.0872 29.9544 31.4404 30.6012L30.6012 31.4403C29.9545 32.0871 28.9664 32.2475 28.1483 31.8384L24.989 30.2587C24.2727 30.6406 23.5156 30.956 22.726 31.1969L21.6093 34.547C21.3201 35.4147 20.5081 36 19.5934 36H18.4066C17.4919 36 16.6799 35.4147 16.3907 34.547L15.274 31.1969C14.4844 30.9561 13.7274 30.6406 13.0112 30.2588L9.85169 31.8385C9.03359 32.2476 8.04552 32.0872 7.39876 31.4405L6.55958 30.6013C5.91282 29.9545 5.75247 28.9665 6.16153 28.1484L7.74124 24.9889C7.35942 24.2726 7.04395 23.5156 6.80305 22.726L3.45302 21.6093C2.58529 21.3201 2 20.5081 2 19.5934V18.4066C2 17.4919 2.58529 16.6799 3.45302 16.3907L6.80305 15.274C7.04396 14.4844 7.35942 13.7274 7.74125 13.0111L6.16153 9.85162C5.75248 9.03352 5.91282 8.04546 6.55959 7.39869L7.39876 6.55952C8.04553 5.91275 9.03359 5.75241 9.85169 6.16146L13.0112 7.74119C13.7274 7.35939 14.4845 7.04394 15.274 6.80305L16.3907 3.45302ZM19 27.5C23.6944 27.5 27.5 23.6944 27.5 19C27.5 14.3056 23.6944 10.5 19 10.5C14.3056 10.5 10.5 14.3056 10.5 19C10.5 23.6944 14.3056 27.5 19 27.5Z" fill="#305669"/>
<path fill-rule="evenodd" clip-rule="evenodd" d="M15.3907 2.45302C15.6799 1.58529 16.4919 1 17.4066 1H18.5934C19.5081 1 20.3201 1.58529 20.6093 2.45302L21.726 5.80305C22.5156 6.04396 23.2726 6.35943 23.989 6.74126L27.1483 5.16159C27.9664 4.75254 28.9545 4.91288 29.6012 5.55965L30.4404 6.39882C31.0872 7.04559 31.2475 8.03365 30.8385 8.85175L29.2588 12.0111C29.6406 12.7274 29.9561 13.4844 30.1969 14.274L33.547 15.3907C34.4147 15.6799 35 16.4919 35 17.4066V18.5934C35 19.5081 34.4147 20.3201 33.547 20.6093L30.1969 21.726C29.9561 22.5156 29.6406 23.2726 29.2588 23.9889L30.8385 27.1482C31.2475 27.9663 31.0872 28.9544 30.4404 29.6012L29.6012 30.4403C28.9545 31.0871 27.9664 31.2475 27.1483 30.8384L23.989 29.2587C23.2727 29.6406 22.5156 29.956 21.726 30.1969L20.6093 33.547C20.3201 34.4147 19.5081 35 18.5934 35H17.4066C16.4919 35 15.6799 34.4147 15.3907 33.547L14.274 30.1969C13.4844 29.9561 12.7274 29.6406 12.0112 29.2588L8.85169 30.8385C8.03359 31.2476 7.04552 31.0872 6.39876 30.4405L5.55958 29.6013C4.91282 28.9545 4.75247 27.9665 5.16153 27.1484L6.74124 23.9889C6.35942 23.2726 6.04395 22.5156 5.80305 21.726L2.45302 20.6093C1.58529 20.3201 1 19.5081 1 18.5934V17.4066C1 16.4919 1.58529 15.6799 2.45302 15.3907L5.80305 14.274C6.04396 13.4844 6.35942 12.7274 6.74125 12.0111L5.16153 8.85162C4.75248 8.03352 4.91282 7.04546 5.55959 6.39869L6.39876 5.55952C7.04553 4.91275 8.03359 4.75241 8.85169 5.16146L12.0112 6.74119C12.7274 6.35939 13.4845 6.04394 14.274 5.80305L15.3907 2.45302ZM18 26.5C22.6944 26.5 26.5 22.6944 26.5 18C26.5 13.3056 22.6944 9.5 18 9.5C13.3056 9.5 9.5 13.3056 9.5 18C9.5 22.6944 13.3056 26.5 18 26.5Z" fill="#40738D"/>
<path fill-rule="evenodd" clip-rule="evenodd" d="M14.3907 1.45302C14.6799 0.585289 15.4919 0 16.4066 0H17.5934C18.5081 0 19.3201 0.585289 19.6093 1.45302L20.726 4.80305C21.5156 5.04396 22.2726 5.35943 22.989 5.74126L26.1483 4.16159C26.9664 3.75254 27.9545 3.91288 28.6012 4.55965L29.4404 5.39882C30.0872 6.04559 30.2475 7.03365 29.8385 7.85175L28.2588 11.0111C28.6406 11.7274 28.9561 12.4844 29.1969 13.274L32.547 14.3907C33.4147 14.6799 34 15.4919 34 16.4066V17.5934C34 18.5081 33.4147 19.3201 32.547 19.6093L29.1969 20.726C28.9561 21.5156 28.6406 22.2726 28.2588 22.9889L29.8385 26.1482C30.2475 26.9663 30.0872 27.9544 29.4404 28.6012L28.6012 29.4403C27.9545 30.0871 26.9664 30.2475 26.1483 29.8384L22.989 28.2587C22.2727 28.6406 21.5156 28.956 20.726 29.1969L19.6093 32.547C19.3201 33.4147 18.5081 34 17.5934 34H16.4066C15.4919 34 14.6799 33.4147 14.3907 32.547L13.274 29.1969C12.4844 28.9561 11.7274 28.6406 11.0112 28.2588L7.85169 29.8385C7.03359 30.2476 6.04552 30.0872 5.39876 29.4405L4.55958 28.6013C3.91282 27.9545 3.75247 26.9665 4.16153 26.1484L5.74124 22.9889C5.35942 22.2726 5.04395 21.5156 4.80305 20.726L1.45302 19.6093C0.585289 19.3201 0 18.5081 0 17.5934V16.4066C0 15.4919 0.585289 14.6799 1.45302 14.3907L4.80305 13.274C5.04396 12.4844 5.35942 11.7274 5.74125 11.0111L4.16153 7.85162C3.75248 7.03352 3.91282 6.04546 4.55959 5.39869L5.39876 4.55952C6.04553 3.91275 7.03359 3.75241 7.85169 4.16146L11.0112 5.74119C11.7274 5.35939 12.4845 5.04394 13.274 4.80305L14.3907 1.45302ZM17 25.5C21.6944 25.5 25.5 21.6944 25.5 17C25.5 12.3056 21.6944 8.5 17 8.5C12.3056 8.5 8.5 12.3056 8.5 17C8.5 21.6944 12.3056 25.5 17 25.5Z" fill="#F2F9FD"/>
<path fill-rule="evenodd" clip-rule="evenodd" d="M17 25.3146C21.4183 25.3146 25 21.7329 25 17.3146C25 12.8963 21.4183 9.31458 17 9.31458C12.5817 9.31458 9 12.8963 9 17.3146C9 21.7329 12.5817 25.3146 17 25.3146ZM17 26.3146C21.9706 26.3146 26 22.2851 26 17.3146C26 12.344 21.9706 8.31458 17 8.31458C12.0294 8.31458 8 12.344 8 17.3146C8 22.2851 12.0294 26.3146 17 26.3146Z" fill="#203946"/>
</g>
<defs>
<clipPath id="clip0_6_8576">
<rect width="36" height="36" fill="white"/>
</clipPath>
</defs>
</svg>
